# Blender v2.79 (sub 0) OBJ File: 'untitled.blend'
# www.blender.org
mtllib PalmLeaf.mtl
o Plane.018_Plane.146
v -0.024745 -0.004061 -0.038296
v -0.024745 -0.010467 0.043317
v 0.024744 -0.004061 -0.038296
v 0.024744 -0.010467 0.043317
v -0.024745 -0.071406 0.231391
v 0.024744 -0.071406 0.231391
v -0.024745 -0.190896 0.414615
v 0.024744 -0.190896 0.414615
v -0.024745 -0.122208 0.321010
v 0.024744 -0.122208 0.321010
v -0.024745 -0.035024 0.140246
v 0.024744 -0.035024 0.140246
v 0.185701 -0.051844 0.068806
v 0.068798 -0.146115 -0.769423
v 0.279129 -0.171439 -0.623617
v 0.380882 -0.116208 -0.472537
v 0.414239 -0.129261 -0.269444
v 0.392757 -0.126224 -0.107132
v 0.290423 -0.127373 0.104939
v 0.048812 -0.022984 0.167825
v 0.164047 -0.158664 -0.727686
v 0.021207 -0.005413 0.020649
v 0.240779 -0.123506 0.157247
v 0.355207 -0.128732 -0.005468
v 0.329010 -0.128795 0.046184
v 0.149912 -0.128671 -0.507151
v 0.118062 -0.132442 -0.517368
v 0.180346 -0.155726 -0.662421
v 0.203681 -0.171932 -0.700030
v 0.157521 -0.145872 -0.594163
v 0.177840 -0.143295 -0.562837
v 0.198417 -0.158673 -0.629971
v 0.090946 -0.123485 -0.467702
v 0.098283 -0.109402 -0.448247
v 0.180346 -0.158878 -0.698444
v 0.332851 -0.148156 -0.561190
v 0.318967 -0.141749 -0.514955
v 0.293552 -0.152640 -0.502925
v 0.243117 -0.131152 -0.430273
v 0.229802 -0.115811 -0.391823
v 0.273551 -0.127023 -0.434927
v 0.304888 -0.136075 -0.477465
v 0.108065 -0.087396 -0.313901
v 0.105473 -0.087613 -0.311222
v 0.124233 -0.090587 -0.308737
v 0.173689 -0.101763 -0.340343
v 0.187004 -0.093469 -0.219649
v 0.412854 -0.129026 -0.378998
v 0.394787 -0.145844 -0.414356
v 0.379120 -0.137520 -0.349673
v 0.346784 -0.128983 -0.314961
v 0.263090 -0.109781 -0.258182
v 0.283041 -0.107031 -0.257237
v 0.361445 -0.120315 -0.317913
v 0.150376 -0.085560 -0.200460
v 0.141040 -0.082971 -0.193933
v 0.157388 -0.085741 -0.188775
v 0.202221 -0.093337 -0.207225
v 0.310148 -0.113674 -0.089987
v 0.400469 -0.123587 -0.152272
v 0.148010 -0.084152 -0.066884
v 0.129185 -0.085510 -0.060102
v 0.156889 -0.091112 -0.049930
v 0.231557 -0.102785 -0.061658
v 0.276405 -0.109479 -0.072340
v 0.408747 -0.128330 -0.196540
v 0.356295 -0.119443 -0.136577
v 0.256432 -0.102522 -0.096480
v 0.355529 -0.118880 -0.118699
v 0.304078 -0.169726 -0.589559
v 0.112648 -0.088178 -0.303724
v 0.089754 -0.108746 -0.452848
v 0.189189 -0.096308 -0.053335
v 0.208368 -0.119823 0.178160
v 0.114630 -0.105912 0.201394
v 0.014332 -0.003124 0.007854
v 0.017727 -0.139495 -0.793036
v 0.127570 -0.154596 -0.752106
v 0.190534 -0.151364 -0.596209
v 0.323567 -0.113897 -0.283220
v 0.128283 -0.028829 0.080135
v 0.335750 -0.082830 -0.044370
v 0.093837 -0.021242 0.060386
v 0.264062 -0.076706 0.024998
v 0.305780 -0.080764 -0.009721
v 0.377215 -0.106985 -0.111554
v 0.218057 -0.056283 0.056647
v 0.139938 -0.014249 -0.124214
v 0.155771 -0.016932 -0.127830
v 0.322740 -0.074717 -0.196907
v 0.232399 -0.044102 -0.151853
v 0.369230 -0.082594 -0.239880
v 0.390914 -0.109161 -0.293679
v 0.158691 -0.024272 -0.270121
v 0.329408 -0.093899 -0.395657
v 0.352910 -0.102586 -0.449268
v 0.134585 -0.019113 -0.258020
v 0.221462 -0.052149 -0.303954
v 0.352998 -0.113774 -0.489951
v 0.126507 -0.017602 -0.256449
v 0.291365 -0.084024 -0.356750
v 0.241845 -0.149667 -0.629508
v 0.250379 -0.122611 -0.599573
v 0.238769 -0.110033 -0.539570
v 0.199587 -0.076901 -0.478060
v 0.100686 -0.029989 -0.390203
v 0.106246 -0.031418 -0.392884
v 0.175269 -0.151852 -0.695521
v 0.145618 -0.127467 -0.675126
v 0.067718 -0.094071 -0.639700
v 0.048913 -0.086212 -0.630830
v 0.096502 -0.108747 -0.646067
v -0.185701 -0.051844 0.068806
v -0.068798 -0.146115 -0.769423
v -0.279129 -0.171439 -0.623617
v -0.380882 -0.116208 -0.472537
v -0.414239 -0.129261 -0.269444
v -0.392757 -0.126224 -0.107132
v -0.290423 -0.127373 0.104939
v -0.048812 -0.022984 0.167825
v -0.164047 -0.158664 -0.727686
v -0.021207 -0.005413 0.020649
v -0.240779 -0.123506 0.157247
v -0.355207 -0.128732 -0.005468
v -0.329010 -0.128795 0.046184
v -0.149912 -0.128671 -0.507151
v -0.118062 -0.132442 -0.517368
v -0.180346 -0.155726 -0.662421
v -0.203681 -0.171932 -0.700030
v -0.157521 -0.145872 -0.594163
v -0.177840 -0.143295 -0.562837
v -0.198417 -0.158673 -0.629971
v -0.090946 -0.123485 -0.467702
v -0.098283 -0.109402 -0.448247
v -0.180346 -0.158878 -0.698444
v -0.332851 -0.148156 -0.561190
v -0.318967 -0.141749 -0.514955
v -0.293552 -0.152640 -0.502925
v -0.243117 -0.131152 -0.430273
v -0.229802 -0.115811 -0.391823
v -0.273551 -0.127023 -0.434927
v -0.304888 -0.136075 -0.477465
v -0.108065 -0.087396 -0.313901
v -0.105473 -0.087613 -0.311222
v -0.124233 -0.090587 -0.308737
v -0.173689 -0.101763 -0.340343
v -0.187004 -0.093469 -0.219649
v -0.412854 -0.129026 -0.378998
v -0.394787 -0.145844 -0.414356
v -0.379120 -0.137520 -0.349673
v -0.346784 -0.128983 -0.314961
v -0.263090 -0.109781 -0.258182
v -0.283041 -0.107031 -0.257237
v -0.361445 -0.120315 -0.317913
v -0.150376 -0.085560 -0.200460
v -0.141040 -0.082971 -0.193933
v -0.157388 -0.085741 -0.188775
v -0.202221 -0.093337 -0.207225
v -0.310148 -0.113674 -0.089987
v -0.400468 -0.123587 -0.152271
v -0.148010 -0.084152 -0.066884
v -0.129185 -0.085510 -0.060102
v -0.156889 -0.091112 -0.049930
v -0.231557 -0.102785 -0.061658
v -0.276404 -0.109479 -0.072340
v -0.408747 -0.128330 -0.196540
v -0.356294 -0.119443 -0.136577
v -0.256432 -0.102522 -0.096480
v -0.355529 -0.118880 -0.118699
v -0.304078 -0.169726 -0.589559
v -0.112648 -0.088178 -0.303724
v -0.089754 -0.108746 -0.452848
v -0.189189 -0.096308 -0.053335
v -0.208368 -0.119823 0.178160
v -0.114630 -0.105912 0.201394
v -0.014332 -0.003124 0.007854
v -0.017727 -0.139495 -0.793036
v -0.127570 -0.154596 -0.752106
v -0.000000 -0.144208 -0.814271
v -0.190534 -0.151364 -0.596209
v -0.323567 -0.113897 -0.283220
v -0.128283 -0.028829 0.080135
v -0.335750 -0.082830 -0.044370
v -0.093837 -0.021242 0.060386
v -0.264062 -0.076706 0.024998
v -0.305780 -0.080764 -0.009721
v -0.377215 -0.106985 -0.111554
v -0.218057 -0.056283 0.056647
v -0.139938 -0.014249 -0.124214
v -0.155771 -0.016932 -0.127830
v -0.322740 -0.074717 -0.196907
v -0.232399 -0.044102 -0.151853
v -0.369230 -0.082594 -0.239880
v -0.390914 -0.109161 -0.293679
v -0.158691 -0.024272 -0.270121
v -0.329408 -0.093899 -0.395657
v -0.352910 -0.102586 -0.449267
v -0.134585 -0.019113 -0.258020
v -0.221462 -0.052149 -0.303954
v -0.352998 -0.113774 -0.489951
v -0.126507 -0.017602 -0.256449
v -0.291365 -0.084024 -0.356750
v -0.241845 -0.149667 -0.629508
v -0.250379 -0.122611 -0.599573
v -0.238769 -0.110033 -0.539570
v -0.199587 -0.076901 -0.478060
v -0.100686 -0.029989 -0.390203
v -0.106246 -0.031418 -0.392884
v -0.175269 -0.151852 -0.695521
v -0.145618 -0.127467 -0.675126
v -0.067718 -0.094071 -0.639700
v -0.048913 -0.086212 -0.630830
v -0.096503 -0.108747 -0.646067
v 0.000000 0.001213 -0.287323
v 0.000000 0.000001 -0.000000
v -0.000000 -0.015287 -0.405070
v 0.000000 0.006111 -0.069843
v 0.000000 0.009461 -0.146567
v 0.000000 0.005410 -0.239356
v -0.000000 -0.002983 -0.335290
v -0.000000 -0.051913 -0.612786
v 0.000000 0.009461 -0.108132
v 0.000000 0.009461 -0.193050
vt 0.808525 0.018481
vt 0.960343 0.018481
vt 0.960343 0.110258
vt 0.808525 0.110258
vt 0.623092 0.110258
vt 0.441094 0.110258
vt 0.441094 0.018481
vt 0.623092 0.018481
vt 0.250050 0.110258
vt 0.034735 0.110258
vt 0.034735 0.018481
vt 0.250050 0.018481
vt 0.482353 0.875038
vt 0.451272 0.912835
vt 0.414311 0.851137
vt 0.449172 0.806670
vt 0.675127 0.885260
vt 0.680479 0.907017
vt 0.646061 0.937789
vt 0.699896 0.832215
vt 0.715042 0.792774
vt 0.767728 0.823518
vt 0.737515 0.858549
vt 0.488804 0.592976
vt 0.422487 0.583789
vt 0.474197 0.466100
vt 0.516563 0.466100
vt 0.489965 0.892175
vt 0.520491 0.847900
vt 0.558625 0.897683
vt 0.511288 0.923030
vt 0.954707 0.603680
vt 0.935408 0.713247
vt 0.834343 0.683161
vt 0.842507 0.616047
vt 0.777179 0.482853
vt 0.788570 0.490889
vt 0.918923 0.523155
vt 0.824615 0.575784
vt 0.708366 0.466100
vt 0.770055 0.466100
vt 0.685830 0.928775
vt 0.733277 0.653076
vt 0.723931 0.620693
vt 0.820415 0.854263
vt 0.797849 0.774756
vt 0.871807 0.809159
vt 0.479833 0.596006
vt 0.419945 0.590289
vt 0.081743 0.550108
vt 0.061552 0.490412
vt 0.204750 0.533204
vt 0.192735 0.578900
vt 0.117365 0.661442
vt 0.146081 0.670968
vt 0.142980 0.680494
vt 0.165828 0.636310
vt 0.096271 0.618805
vt 0.347948 0.575996
vt 0.207818 0.523273
vt 0.356171 0.574602
vt 0.775135 0.884883
vt 0.603591 0.653659
vt 0.599053 0.634550
vt 0.660398 0.629670
vt 0.657216 0.648177
vt 0.198617 0.795958
vt 0.196839 0.748787
vt 0.226913 0.758761
vt 0.228391 0.825120
vt 0.306072 0.644920
vt 0.360058 0.584572
vt 0.339190 0.699392
vt 0.636079 0.737745
vt 0.587357 0.706062
vt 0.436217 0.952266
vt 0.649519 0.886155
vt 0.596436 0.843343
vt 0.684801 0.769428
vt 0.917360 0.751132
vt 0.824025 0.720981
vt 0.306072 0.842524
vt 0.339369 0.826068
vt 0.366653 0.878608
vt 0.330134 0.878710
vt 0.306072 0.812817
vt 0.280828 0.745191
vt 0.372309 0.753865
vt 0.730691 0.690830
vt 0.195062 0.701616
vt 0.132329 0.707769
vt 0.586048 0.645463
vt 0.540690 0.623413
vt 0.542183 0.613971
vt 0.462192 0.672712
vt 0.497894 0.724961
vt 0.415991 0.738301
vt 0.568621 0.688276
vt 0.529687 0.651590
vt 0.265054 0.858753
vt 0.377349 0.789439
vt 0.533595 0.777210
vt 0.174797 0.680494
vt 0.235384 0.653813
vt 0.543352 0.800530
vt 0.723892 0.740352
vt 0.710842 0.642697
vt 0.596759 0.947466
vt 0.532612 0.953885
vt 0.490753 0.614904
vt 0.495332 0.601363
vt 0.393937 0.931148
vt 0.354197 0.914895
vt 0.255585 0.677564
vt 0.225434 0.692402
vt 0.303727 0.607692
vt 0.042578 0.466100
vt 0.674548 0.466100
vt 0.599830 0.466100
vt 0.640729 0.466100
vt 0.558930 0.466100
vt 0.411851 0.466100
vt 0.226265 0.466100
vt 0.482353 0.875038
vt 0.449172 0.806670
vt 0.414311 0.851137
vt 0.451272 0.912835
vt 0.675127 0.885260
vt 0.646061 0.937789
vt 0.680479 0.907017
vt 0.699896 0.832215
vt 0.737515 0.858549
vt 0.767728 0.823518
vt 0.715042 0.792774
vt 0.488804 0.592976
vt 0.422487 0.583789
vt 0.489965 0.892175
vt 0.511288 0.923030
vt 0.558625 0.897683
vt 0.520491 0.847900
vt 0.954707 0.603680
vt 0.842507 0.616047
vt 0.834343 0.683161
vt 0.935408 0.713247
vt 0.777179 0.482853
vt 0.824615 0.575784
vt 0.918923 0.523155
vt 0.788570 0.490889
vt 0.685830 0.928775
vt 0.723931 0.620693
vt 0.733277 0.653076
vt 0.820415 0.854263
vt 0.871807 0.809159
vt 0.797849 0.774756
vt 0.479833 0.596006
vt 0.419945 0.590289
vt 0.081743 0.550108
vt 0.192735 0.578900
vt 0.204750 0.533204
vt 0.061552 0.490412
vt 0.117365 0.661442
vt 0.142980 0.680494
vt 0.146081 0.670968
vt 0.096271 0.618805
vt 0.165828 0.636310
vt 0.347948 0.575996
vt 0.356171 0.574602
vt 0.207818 0.523273
vt 0.775135 0.884883
vt 0.603591 0.653659
vt 0.657216 0.648177
vt 0.660398 0.629670
vt 0.599053 0.634550
vt 0.198617 0.795958
vt 0.228391 0.825120
vt 0.226913 0.758761
vt 0.196839 0.748787
vt 0.306072 0.644920
vt 0.339190 0.699392
vt 0.360058 0.584572
vt 0.587357 0.706062
vt 0.636079 0.737745
vt 0.436217 0.952266
vt 0.649519 0.886155
vt 0.684801 0.769428
vt 0.596436 0.843343
vt 0.824025 0.720981
vt 0.917360 0.751132
vt 0.306072 0.842524
vt 0.330134 0.878710
vt 0.366653 0.878608
vt 0.339369 0.826068
vt 0.306072 0.812817
vt 0.372309 0.753865
vt 0.280828 0.745191
vt 0.730691 0.690830
vt 0.195062 0.701616
vt 0.132329 0.707769
vt 0.542183 0.613971
vt 0.540690 0.623413
vt 0.586048 0.645463
vt 0.462192 0.672712
vt 0.415991 0.738301
vt 0.497894 0.724961
vt 0.529687 0.651590
vt 0.568621 0.688276
vt 0.265054 0.858753
vt 0.377349 0.789439
vt 0.533595 0.777210
vt 0.174797 0.680494
vt 0.235384 0.653813
vt 0.543352 0.800530
vt 0.723892 0.740352
vt 0.710842 0.642697
vt 0.596759 0.947466
vt 0.532612 0.953885
vt 0.490753 0.614904
vt 0.495332 0.601363
vt 0.354197 0.914895
vt 0.393937 0.931148
vt 0.255585 0.677564
vt 0.225434 0.692402
vt 0.303727 0.607692
vn -0.0000 0.9867 0.1625
vn 0.0000 0.9969 0.0783
vn -0.0000 0.9511 0.3088
vn -0.0000 0.9014 0.4329
vn 0.0000 0.8395 0.5433
vn 0.0000 0.8062 0.5916
vn 0.4981 0.8150 0.2961
vn 0.5588 0.8078 0.1876
vn 0.2204 0.9709 -0.0939
vn 0.1934 0.9767 -0.0932
vn -0.2536 0.8385 -0.4822
vn 0.3223 0.9333 -0.1585
vn 0.3281 0.9254 -0.1899
vn -0.2310 0.8729 -0.4297
vn -0.1377 0.9252 -0.3535
vn 0.2825 0.9583 0.0432
vn 0.3126 0.9490 -0.0410
vn 0.5050 0.8468 -0.1668
vn 0.4195 0.8953 -0.1501
vn 0.0000 0.9999 0.0166
vn -0.0000 0.9635 -0.2679
vn -0.1382 0.9288 -0.3439
vn -0.1513 0.8973 -0.4147
vn 0.3111 0.9450 -0.1012
vn 0.3324 0.9225 -0.1960
vn 0.3870 0.8006 0.4575
vn 0.3232 0.8162 0.4789
vn 0.2854 0.9537 0.0950
vn 0.4170 0.8992 0.1326
vn 0.1671 0.9822 0.0859
vn 0.4155 0.8516 0.3198
vn 0.3915 0.9202 -0.0037
vn -0.0000 0.9890 -0.1479
vn -0.0000 0.9962 0.0872
vn 0.7540 0.6175 0.2238
vn 0.1954 0.9146 -0.3540
vn 0.3972 0.9064 0.1437
vn 0.5428 0.7457 0.3865
vn 0.3215 0.9463 0.0348
vn 0.5108 0.7755 0.3712
vn 0.5054 0.7245 0.4687
vn 0.3952 0.9027 -0.1699
vn 0.2716 0.8971 -0.3484
vn 0.2235 0.9123 -0.3431
vn 0.4246 0.8881 -0.1762
vn 0.3791 0.9190 -0.1080
vn 0.4170 0.8306 -0.3692
vn 0.6313 0.7494 -0.1997
vn 0.7376 0.6319 -0.2380
vn 0.4230 0.8955 -0.1384
vn 0.2531 0.9019 -0.3500
vn 0.6727 0.7399 -0.0032
vn 0.5368 0.8157 -0.2156
vn 0.5114 0.7686 -0.3844
vn 0.6728 0.6503 0.3528
vn 0.0439 0.6990 -0.7137
vn 0.4091 0.9099 -0.0682
vn 0.3158 0.9419 0.1143
vn 0.2751 0.9614 0.0052
vn 0.5428 0.6371 -0.5472
vn 0.1801 0.8467 -0.5007
vn 0.2004 0.9039 -0.3780
vn 0.6358 0.7224 -0.2717
vn -0.3762 0.7084 -0.5972
vn -0.1303 0.6273 -0.7678
vn 0.2081 0.9583 -0.1959
vn 0.2197 0.9756 0.0016
vn -0.0651 0.7794 -0.6231
vn 0.2203 0.9610 -0.1671
vn 0.4536 0.7872 0.4177
vn 0.2216 0.9751 0.0053
vn 0.3876 0.7267 0.5671
vn 0.4078 0.8086 0.4242
vn 0.2961 0.9533 0.0598
vn -0.4790 0.8372 -0.2639
vn -0.4026 0.8624 -0.3069
vn 0.1587 0.9815 -0.1070
vn 0.0086 0.9453 -0.3260
vn 0.6485 0.7603 0.0371
vn 0.2266 0.9519 -0.2063
vn 0.6328 0.7336 0.2477
vn 0.0900 0.9341 -0.3454
vn -0.2642 0.9050 -0.3333
vn 0.0921 0.9341 -0.3448
vn 0.4476 0.6495 0.6147
vn 0.4206 0.9041 -0.0758
vn 0.4667 0.8764 -0.1183
vn -0.2084 0.7092 -0.6735
vn 0.2166 0.9701 -0.1096
vn -0.2050 0.8281 -0.5217
vn 0.4792 0.6640 0.5739
vn 0.1904 0.9734 -0.1274
vn -0.2708 0.8947 -0.3552
vn -0.2715 0.8780 -0.3942
vn 0.5083 0.7462 0.4298
vn 0.6346 0.7711 0.0517
vn 0.4833 0.8699 0.0980
vn -0.1291 0.8708 -0.4743
vn 0.0411 0.9396 -0.3399
vn 0.2921 0.6449 0.7062
vn 0.5956 0.7730 0.2183
vn 0.7030 0.7112 0.0011
vn -0.2303 0.6090 -0.7590
vn 0.1032 0.5454 -0.8318
vn 0.6047 0.7903 0.0989
vn 0.4846 0.8740 -0.0345
vn -0.3787 0.8315 -0.4063
vn -0.3643 0.8576 -0.3630
vn 0.4582 0.8841 0.0917
vn -0.0000 0.9282 -0.3722
vn 0.0000 0.9451 0.3267
vn -0.0000 0.9990 -0.0452
vn 0.0000 1.0000 -0.0009
vn 0.0000 0.9984 -0.0572
vn 0.0000 0.8895 -0.4568
vn 0.0000 0.9702 -0.2421
vn -0.4981 0.8150 0.2961
vn -0.1934 0.9767 -0.0932
vn -0.2204 0.9709 -0.0939
vn -0.5588 0.8078 0.1876
vn 0.2536 0.8385 -0.4822
vn -0.3281 0.9254 -0.1899
vn -0.3223 0.9333 -0.1585
vn 0.2310 0.8729 -0.4297
vn -0.3126 0.9490 -0.0410
vn -0.2825 0.9583 0.0432
vn 0.1377 0.9252 -0.3535
vn -0.5050 0.8468 -0.1668
vn -0.4195 0.8953 -0.1501
vn 0.1382 0.9288 -0.3439
vn -0.3324 0.9225 -0.1960
vn -0.3111 0.9450 -0.1012
vn 0.1513 0.8973 -0.4147
vn -0.3870 0.8006 0.4575
vn -0.4170 0.8992 0.1326
vn -0.2854 0.9537 0.0950
vn -0.3232 0.8162 0.4789
vn -0.1671 0.9822 0.0859
vn -0.3915 0.9202 -0.0037
vn -0.4155 0.8516 0.3198
vn -0.7540 0.6175 0.2238
vn -0.3972 0.9064 0.1437
vn -0.1954 0.9146 -0.3540
vn -0.5428 0.7457 0.3865
vn -0.5108 0.7755 0.3712
vn -0.3215 0.9463 0.0348
vn -0.5054 0.7245 0.4687
vn -0.3952 0.9027 -0.1699
vn -0.2716 0.8971 -0.3484
vn -0.3791 0.9190 -0.1080
vn -0.4246 0.8881 -0.1762
vn -0.2235 0.9123 -0.3431
vn -0.4170 0.8306 -0.3692
vn -0.7376 0.6319 -0.2380
vn -0.6313 0.7494 -0.1997
vn -0.2531 0.9019 -0.3500
vn -0.4230 0.8955 -0.1384
vn -0.6727 0.7399 -0.0032
vn -0.5114 0.7686 -0.3844
vn -0.5368 0.8157 -0.2156
vn -0.6728 0.6503 0.3528
vn -0.0439 0.6990 -0.7137
vn -0.2751 0.9614 0.0052
vn -0.3158 0.9419 0.1143
vn -0.4091 0.9099 -0.0682
vn -0.5428 0.6371 -0.5472
vn -0.6358 0.7224 -0.2717
vn -0.2004 0.9039 -0.3780
vn -0.1801 0.8467 -0.5007
vn 0.3762 0.7084 -0.5972
vn -0.2081 0.9583 -0.1959
vn 0.1303 0.6273 -0.7678
vn 0.0651 0.7794 -0.6231
vn -0.2197 0.9756 0.0016
vn -0.2203 0.9610 -0.1671
vn -0.4536 0.7872 0.4177
vn -0.3876 0.7267 0.5671
vn -0.2216 0.9751 0.0053
vn -0.2961 0.9533 0.0598
vn -0.4078 0.8086 0.4242
vn 0.4790 0.8372 -0.2639
vn -0.0086 0.9453 -0.3260
vn -0.1587 0.9815 -0.1070
vn 0.4026 0.8624 -0.3069
vn -0.6485 0.7603 0.0371
vn -0.6328 0.7336 0.2477
vn -0.2266 0.9519 -0.2063
vn -0.0900 0.9341 -0.3454
vn 0.2642 0.9050 -0.3333
vn -0.0921 0.9341 -0.3448
vn -0.4667 0.8764 -0.1183
vn -0.4206 0.9041 -0.0758
vn -0.4476 0.6495 0.6147
vn 0.2084 0.7092 -0.6735
vn 0.2050 0.8281 -0.5217
vn -0.2166 0.9701 -0.1096
vn -0.1904 0.9734 -0.1274
vn -0.4792 0.6640 0.5739
vn 0.2708 0.8947 -0.3552
vn 0.2715 0.8780 -0.3942
vn -0.5083 0.7462 0.4298
vn -0.6346 0.7711 0.0517
vn -0.4833 0.8699 0.0980
vn 0.1291 0.8708 -0.4743
vn -0.0411 0.9396 -0.3399
vn -0.2921 0.6449 0.7062
vn -0.5956 0.7730 0.2183
vn -0.7030 0.7112 0.0011
vn 0.2303 0.6090 -0.7590
vn -0.1032 0.5454 -0.8318
vn -0.4846 0.8740 -0.0345
vn -0.6047 0.7903 0.0989
vn 0.3787 0.8315 -0.4063
vn 0.3643 0.8576 -0.3630
vn -0.4582 0.8841 0.0917
usemtl Material.002
s 1
f 4/1/1 3/2/2 1/3/2 2/4/1
f 11/5/3 5/6/4 6/7/4 12/8/3
f 9/9/5 7/10/6 8/11/6 10/12/5
f 5/6/4 9/9/5 10/12/5 6/7/4
f 2/4/1 11/5/3 12/8/3 4/1/1
f 51/13/7 50/14/8 95/15/9 101/16/10
f 69/17/11 86/18/12 60/19/13
f 59/20/14 65/21/15 85/22/16 82/23/17
f 44/24/18 106/25/19 220/26/20 214/27/21
f 54/28/22 80/29/23 92/30/24 93/31/25
f 75/32/26 74/33/27 13/34/28 81/35/29
f 76/36/30 22/37/30 20/38/31 83/39/32 217/40/33 215/41/34
f 86/18/12 18/42/35 60/19/13
f 13/34/28 63/43/36 62/44/37 81/35/29
f 25/45/38 85/22/16 84/46/39 19/47/40
f 43/48/41 107/49/42 106/25/19 44/24/18
f 14/50/43 77/51/44 110/52/45 112/53/46
f 21/54/47 108/55/48 35/56/49
f 14/50/43 112/53/46 109/57/50 78/58/51
f 33/59/52 110/52/45 111/60/53 72/61/54
f 85/22/16 25/45/38 24/62/55 82/23/17
f 75/32/26 81/35/29 83/39/32 20/38/31
f 57/63/56 56/64/57 88/65/58 89/66/59
f 15/67/60 102/68/61 103/69/62 70/70/63
f 26/71/64 34/72/65 107/49/42 105/73/66
f 57/63/56 89/66/59 91/74/67 58/75/68
f 48/76/69 54/28/22 93/31/25
f 67/77/70 90/78/71 91/74/67 68/79/72
f 13/34/28 74/33/27 23/80/73 87/81/74
f 37/82/75 42/83/76 96/84/77 99/85/78
f 23/80/73 19/47/40 84/46/39 87/81/74
f 38/86/79 104/87/80 105/73/66 39/88/81
f 73/89/82 63/43/36 13/34/28 87/81/74
f 32/90/83 102/68/61 29/91/84
f 56/64/57 55/92/85 97/93/86 100/94/87
f 46/95/88 98/96/89 101/16/10 40/97/90
f 55/92/85 47/98/91 94/99/92 97/93/86
f 36/100/93 37/82/75 99/85/78
f 42/83/76 41/101/94 95/15/9 96/84/77
f 47/98/91 52/102/95 98/96/89 94/99/92
f 18/42/35 86/18/12 82/23/17 24/62/55
f 28/103/96 108/55/48 109/57/50 30/104/97
f 70/70/63 103/69/62 104/87/80 38/86/79
f 80/29/23 53/105/98 90/78/71 92/30/24
f 86/18/12 69/17/11 59/20/14 82/23/17
f 84/46/39 64/106/99 73/89/82 87/81/74
f 85/22/16 65/21/15 64/106/99 84/46/39
f 81/35/29 62/44/37 83/39/32
f 89/66/59 61/107/100 68/79/72 91/74/67
f 88/65/58 62/44/37 61/107/100 89/66/59
f 90/78/71 67/77/70 66/108/101 92/30/24
f 93/31/25 17/109/102 48/76/69
f 90/78/71 53/105/98 58/75/68 91/74/67
f 92/30/24 66/108/101 17/109/102 93/31/25
f 98/96/89 52/102/95 51/13/7 101/16/10
f 98/96/89 46/95/88 45/110/103 94/99/92
f 94/99/92 45/110/103 71/111/104 97/93/86
f 96/84/77 49/112/105 16/113/106 99/85/78
f 99/85/78 16/113/106 36/100/93
f 95/15/9 41/101/94 40/97/90 101/16/10
f 97/93/86 71/111/104 44/24/18 100/94/87
f 95/15/9 50/14/8 49/112/105 96/84/77
f 104/87/80 31/114/107 26/71/64 105/73/66
f 103/69/62 79/115/108 31/114/107 104/87/80
f 107/49/42 34/72/65 72/61/54 106/25/19
f 102/68/61 15/67/60 29/91/84
f 102/68/61 32/90/83 79/115/108 103/69/62
f 107/49/42 43/48/41 39/88/81 105/73/66
f 112/53/46 27/116/109 30/104/97 109/57/50
f 110/52/45 77/51/44 179/117/110 111/60/53
f 110/52/45 33/59/52 27/116/109 112/53/46
f 108/55/48 28/103/96 35/56/49
f 108/55/48 21/54/47 78/58/51 109/57/50
f 83/39/32 62/44/37 222/118/111 217/40/33
f 88/65/58 56/64/57 223/119/112 218/120/113
f 100/94/87 44/24/18 214/27/21 219/121/114
f 106/25/19 72/61/54 216/122/115 220/26/20
f 111/60/53 179/117/110 221/123/116
f 62/44/37 88/65/58 218/120/113 222/118/111
f 72/61/54 111/60/53 221/123/116 216/122/115
f 56/64/57 100/94/87 219/121/114 223/119/112
f 151/124/117 202/125/118 196/126/119 150/127/120
f 169/128/121 160/129/122 187/130/123
f 159/131/124 183/132/125 186/133/126 165/134/127
f 144/135/128 214/27/21 220/26/20 207/136/129
f 154/137/130 194/138/131 193/139/132 181/140/133
f 175/141/134 182/142/135 113/143/136 174/144/137
f 176/145/138 215/41/34 217/40/33 184/146/139 120/147/140 122/148/138
f 187/130/123 160/129/122 118/149/141
f 113/143/136 182/142/135 162/150/142 163/151/143
f 125/152/144 119/153/145 185/154/146 186/133/126
f 143/155/147 144/135/128 207/136/129 208/156/148
f 114/157/149 213/158/150 211/159/151 177/160/152
f 121/161/153 135/162/154 209/163/155
f 114/157/149 178/164/156 210/165/157 213/158/150
f 133/166/158 172/167/159 212/168/160 211/159/151
f 186/133/126 183/132/125 124/169/161 125/152/144
f 175/141/134 120/147/140 184/146/139 182/142/135
f 157/170/162 190/171/163 189/172/164 156/173/165
f 115/174/166 170/175/167 204/176/168 203/177/169
f 126/178/170 206/179/171 208/156/148 134/180/172
f 157/170/162 158/181/173 192/182/174 190/171/163
f 148/183/175 194/138/131 154/137/130
f 167/184/176 168/185/177 192/182/174 191/186/178
f 113/143/136 188/187/179 123/188/180 174/144/137
f 137/189/181 200/190/182 197/191/183 142/192/184
f 123/188/180 188/187/179 185/154/146 119/153/145
f 138/193/185 139/194/186 206/179/171 205/195/187
f 173/196/188 188/187/179 113/143/136 163/151/143
f 132/197/189 129/198/190 203/177/169
f 156/173/165 201/199/191 198/200/192 155/201/193
f 146/202/194 140/203/195 202/125/118 199/204/196
f 155/201/193 198/200/192 195/205/197 147/206/198
f 136/207/199 200/190/182 137/189/181
f 142/192/184 197/191/183 196/126/119 141/208/200
f 147/206/198 195/205/197 199/204/196 152/209/201
f 118/149/141 124/169/161 183/132/125 187/130/123
f 128/210/202 130/211/203 210/165/157 209/163/155
f 170/175/167 138/193/185 205/195/187 204/176/168
f 181/140/133 193/139/132 191/186/178 153/212/204
f 187/130/123 183/132/125 159/131/124 169/128/121
f 185/154/146 188/187/179 173/196/188 164/213/205
f 186/133/126 185/154/146 164/213/205 165/134/127
f 182/142/135 184/146/139 162/150/142
f 190/171/163 192/182/174 168/185/177 161/214/206
f 189/172/164 190/171/163 161/214/206 162/150/142
f 191/186/178 193/139/132 166/215/207 167/184/176
f 194/138/131 148/183/175 117/216/208
f 191/186/178 192/182/174 158/181/173 153/212/204
f 193/139/132 194/138/131 117/216/208 166/215/207
f 199/204/196 202/125/118 151/124/117 152/209/201
f 199/204/196 195/205/197 145/217/209 146/202/194
f 195/205/197 198/200/192 171/218/210 145/217/209
f 197/191/183 200/190/182 116/219/211 149/220/212
f 200/190/182 136/207/199 116/219/211
f 196/126/119 202/125/118 140/203/195 141/208/200
f 198/200/192 201/199/191 144/135/128 171/218/210
f 196/126/119 197/191/183 149/220/212 150/127/120
f 205/195/187 206/179/171 126/178/170 131/221/213
f 204/176/168 205/195/187 131/221/213 180/222/214
f 208/156/148 207/136/129 172/167/159 134/180/172
f 203/177/169 129/198/190 115/174/166
f 203/177/169 204/176/168 180/222/214 132/197/189
f 208/156/148 206/179/171 139/194/186 143/155/147
f 213/158/150 210/165/157 130/211/203 127/223/215
f 211/159/151 212/168/160 179/117/110 177/160/152
f 211/159/151 213/158/150 127/223/215 133/166/158
f 209/163/155 135/162/154 128/210/202
f 209/163/155 210/165/157 178/164/156 121/161/153
f 184/146/139 217/40/33 222/118/111 162/150/142
f 189/172/164 218/120/113 223/119/112 156/173/165
f 201/199/191 219/121/114 214/27/21 144/135/128
f 207/136/129 220/26/20 216/122/115 172/167/159
f 212/168/160 221/123/116 179/117/110
f 162/150/142 222/118/111 218/120/113 189/172/164
f 172/167/159 216/122/115 221/123/116 212/168/160
f 156/173/165 223/119/112 219/121/114 201/199/191
