# Blender v2.79 (sub 0) OBJ File: 'untitled.blend'
# www.blender.org
mtllib Torch.mtl
o Cylinder.001_Cylinder.002
v -0.083843 -0.350103 -0.175222
v 0.106404 -0.347262 -0.167416
v 0.235055 -0.299243 -0.035485
v 0.226749 -0.234174 0.143289
v 0.086350 -0.190173 0.264181
v -0.103897 -0.193014 0.256376
v -0.232548 -0.241033 0.124445
v -0.224242 -0.306101 -0.054329
v -0.083843 -0.687448 -0.052438
v 0.106404 -0.684607 -0.044633
v 0.235055 -0.636588 0.087298
v 0.226749 -0.571519 0.266072
v 0.086350 -0.527518 0.386965
v -0.103897 -0.530359 0.379160
v -0.232548 -0.578378 0.247228
v -0.224242 -0.643446 0.068454
v 0.086350 -0.190173 0.508024
v -0.103897 -0.193014 0.508024
v 0.086350 -0.527518 0.508024
v -0.103897 -0.530359 0.508024
v 0.682632 -0.071103 0.508024
v -0.700179 -0.075932 0.508024
v 0.682632 -0.644600 0.508024
v -0.700179 -0.649429 0.508024
v -0.152879 -1.073802 0.260504
v -0.196926 0.232491 -0.236806
v -0.056913 -1.103879 0.177870
v -0.073535 0.193820 -0.343054
v 0.073126 -1.101937 0.183206
v 0.093666 0.196317 -0.336195
v 0.161063 -1.069114 0.273384
v 0.206733 0.238519 -0.220245
v 0.155385 -1.024638 0.395581
v 0.199433 0.295705 -0.063127
v 0.059419 -0.994562 0.478214
v 0.076042 0.334377 0.043121
v -0.070620 -0.996504 0.472879
v -0.091159 0.331880 0.036262
v -0.158556 -1.029326 0.382701
v -0.204227 0.289678 -0.079688
v -0.073535 0.809177 -0.567026
v -0.196926 0.847848 -0.460778
v 0.093666 0.811674 -0.560166
v 0.206733 0.853876 -0.444216
v 0.199433 0.911062 -0.287099
v 0.076042 0.949733 -0.180850
v -0.091159 0.947237 -0.187710
v -0.204227 0.905034 -0.303660
v 0.106573 0.290293 -0.399855
v 0.106573 0.698764 -0.548526
v 0.235432 0.746861 -0.416382
v 0.235432 0.338390 -0.267710
v 0.086487 0.447635 0.032439
v 0.086487 0.856106 -0.116232
v -0.104066 0.853260 -0.124050
v -0.104066 0.444790 0.024621
v 0.227112 0.812034 -0.237320
v 0.227112 0.403563 -0.088649
v -0.232925 0.805164 -0.256194
v -0.232925 0.396693 -0.107523
v -0.083981 0.287448 -0.407673
v -0.083981 0.695919 -0.556344
v -0.224606 0.739991 -0.435256
v -0.224606 0.331520 -0.286585
vt 0.244517 0.534379
vt 0.244517 0.607237
vt 0.189734 0.607237
vt 0.189734 0.534379
vt 0.569237 0.239787
vt 0.642027 0.242932
vt 0.642027 0.286912
vt 0.569237 0.286602
vt 0.244517 0.242947
vt 0.244517 0.315805
vt 0.189734 0.315805
vt 0.189734 0.242948
vt 0.244517 0.461521
vt 0.189734 0.461521
vt 0.244517 0.680095
vt 0.189734 0.680094
vt 0.244517 0.170090
vt 0.189734 0.170090
vt 0.244517 0.388663
vt 0.189734 0.388663
vt 0.138216 0.337145
vt 0.138216 0.513039
vt 0.065358 0.513039
vt 0.013840 0.461521
vt 0.013840 0.388663
vt 0.065358 0.337145
vt 0.296036 0.337145
vt 0.368894 0.337145
vt 0.420412 0.388663
vt 0.420412 0.461521
vt 0.368893 0.513039
vt 0.296036 0.513039
vt 0.743200 0.208447
vt 0.743316 0.142958
vt 0.971493 0.120248
vt 0.971296 0.231581
vt 0.515022 0.231916
vt 0.515022 0.323339
vt 0.442232 0.235061
vt 0.442232 0.323648
vt 0.696242 0.235061
vt 0.696242 0.323648
vt 0.670527 0.143381
vt 0.670411 0.208870
vt 0.442232 0.231581
vt 0.442429 0.120247
vt 0.747057 0.501582
vt 0.697684 0.709897
vt 0.635903 0.693068
vt 0.699007 0.488493
vt 0.795870 0.511450
vt 0.760447 0.722585
vt 0.845230 0.518053
vt 0.823914 0.731075
vt 0.894920 0.521362
vt 0.887804 0.735330
vt 0.575377 0.672170
vt 0.651934 0.472240
vt 0.516373 0.647297
vt 0.606044 0.452896
vt 0.999832 0.856455
vt 0.921227 0.865916
vt 0.919087 0.844306
vt 0.991429 0.833328
vt 0.944721 0.521362
vt 0.951836 0.735330
vt 0.944721 0.401133
vt 0.979935 0.436348
vt 0.979935 0.486148
vt 0.859706 0.486148
vt 0.859706 0.436348
vt 0.894920 0.401133
vt 0.412448 0.747194
vt 0.463947 0.703293
vt 0.531406 0.708665
vt 0.575308 0.760165
vt 0.569936 0.827623
vt 0.518436 0.871525
vt 0.450977 0.866153
vt 0.407076 0.814653
vt 0.652285 0.884650
vt 0.585575 0.889026
vt 0.584616 0.868842
vt 0.651032 0.864444
vt 0.518048 0.891530
vt 0.444591 0.886814
vt 0.718818 0.879929
vt 0.717509 0.859705
vt 0.852331 0.870532
vt 0.850938 0.849960
vt 0.785388 0.875180
vt 0.784065 0.854889
vt 0.859807 0.951585
vt 0.793391 0.955982
vt 0.792138 0.935777
vt 0.858849 0.931401
vt 0.726915 0.960722
vt 0.725606 0.940497
vt 0.593485 0.970467
vt 0.525336 0.976121
vt 0.523196 0.954511
vt 0.592092 0.949895
vt 0.925987 0.948901
vt 0.926376 0.928897
vt 0.660358 0.965538
vt 0.659035 0.945246
vt 0.452994 0.987099
vt 0.444591 0.963971
vt 0.993446 0.954274
vt 0.999832 0.933612
vt 0.459152 0.618559
vt 0.561541 0.430545
vn 0.9397 -0.1170 -0.3214
vn 0.9063 0.1445 0.3971
vn 0.0149 -0.9999 -0.0000
vn -0.9397 0.1170 0.3214
vn -0.9063 -0.1445 -0.3971
vn 0.4226 -0.3100 -0.8517
vn 0.6756 0.2522 0.6928
vn -0.7373 0.2311 0.6348
vn -0.3420 -0.3214 -0.8830
vn -0.0000 -0.9397 0.3420
vn 0.0000 0.9397 -0.3420
vn 0.0000 -0.0000 -1.0000
vn -1.0000 -0.0000 -0.0000
vn -0.0149 0.9999 0.0000
vn 1.0000 0.0000 0.0000
vn -0.9391 0.0842 0.3331
vn -0.9058 -0.1771 -0.3850
vn -0.4224 0.2771 0.8630
vn 0.3418 0.2885 0.8944
vn 0.9058 0.1118 0.4088
vn -0.3418 -0.3539 -0.8706
vn 0.4224 -0.3424 -0.8392
vn 0.9316 0.0068 -0.3633
vn 0.4190 -0.1845 -0.8890
vn 0.4072 -0.0475 -0.9121
vn 0.9055 0.1385 -0.4011
vn 0.9391 -0.1496 -0.3093
vn -0.4190 0.4301 0.7996
vn 0.3391 0.4415 0.8307
vn 0.3296 0.5609 0.7594
vn -0.4072 0.5499 0.7292
vn 0.8985 0.2661 0.3490
vn 0.8733 0.3905 0.2912
vn -0.9316 0.2388 0.2739
vn -0.9055 0.3639 0.2183
vn -0.3391 -0.1958 -0.9202
vn -0.3296 -0.0585 -0.9423
vn -0.8985 -0.0205 -0.4384
vn -0.8733 0.1119 -0.4741
vn -0.3296 -0.5609 -0.7594
vn -0.8733 -0.3905 -0.2912
vn -0.8985 -0.2661 -0.3490
vn -0.3391 -0.4415 -0.8307
vn -0.9055 -0.1385 0.4011
vn -0.9316 -0.0068 0.3633
vn 0.3296 0.0585 0.9423
vn 0.8733 -0.1119 0.4741
vn 0.8985 0.0205 0.4384
vn 0.3391 0.1958 0.9202
vn 0.4072 -0.5499 -0.7292
vn 0.4190 -0.4301 -0.7996
vn -0.4072 0.0475 0.9121
vn -0.4190 0.1845 0.8890
vn 0.9055 -0.3639 -0.2183
vn 0.9316 -0.2388 -0.2739
usemtl Material.011
s 1
f 3/1/1 4/2/2 12/3/2 11/4/1
f 14/5/3 13/6/3 19/7/3 20/8/3
f 7/9/4 8/10/5 16/11/5 15/12/4
f 2/13/6 3/1/1 11/4/1 10/14/6
f 4/2/2 5/15/7 13/16/7 12/3/2
f 6/17/8 7/9/4 15/12/4 14/18/8
f 8/10/5 1/19/9 9/20/9 16/11/5
f 1/19/9 2/13/6 10/14/6 9/20/9
f 16/21/10 9/20/10 10/14/10 11/22/10 12/23/10 13/24/10 14/25/10 15/26/10
f 8/27/11 7/28/11 6/29/11 5/30/11 4/31/11 3/32/11 2/13/11 1/19/11
f 19/33/12 17/34/12 21/35/12 23/36/12
f 6/37/13 14/5/13 20/8/13 18/38/13
f 5/39/14 6/37/14 18/38/14 17/40/14
f 13/6/15 5/41/15 17/42/15 19/7/15
f 18/43/12 20/44/12 24/45/12 22/46/12
f 17/34/12 18/43/12 22/46/12 21/35/12
f 20/44/12 19/33/12 23/36/12 24/45/12
f 39/47/16 40/48/16 26/49/17 25/50/17
f 37/51/18 38/52/18 40/48/16 39/47/16
f 35/53/19 36/54/19 38/52/18 37/51/18
f 33/55/20 34/56/20 36/54/19 35/53/19
f 25/50/17 26/49/17 28/57/21 27/58/21
f 27/58/21 28/57/21 30/59/22 29/60/22
f 51/61/23 50/62/24 43/63/25 44/64/26
f 31/65/27 32/66/27 34/56/20 33/55/20
f 25/67/10 27/68/10 29/69/10 31/65/10 33/55/10 35/70/10 37/71/10 39/72/10
f 41/73/11 42/74/11 48/75/11 47/76/11 46/77/11 45/78/11 44/79/11 43/80/11
f 55/81/28 54/82/29 46/83/30 47/84/31
f 57/85/32 51/86/23 44/79/26 45/78/33
f 59/87/34 55/81/28 47/84/31 48/88/35
f 50/62/24 62/89/36 41/90/37 43/63/25
f 54/82/29 57/85/32 45/78/33 46/83/30
f 63/91/38 59/87/34 48/88/35 42/92/39
f 62/89/36 63/91/38 42/92/39 41/90/37
f 28/93/40 26/94/41 64/95/42 61/96/43
f 61/96/43 64/95/42 63/91/38 62/89/36
f 26/94/41 40/97/44 60/98/45 64/95/42
f 64/95/42 60/98/45 59/87/34 63/91/38
f 36/99/46 34/100/47 58/101/48 53/102/49
f 53/102/49 58/101/48 57/85/32 54/82/29
f 30/103/50 28/93/40 61/96/43 49/104/51
f 49/104/51 61/96/43 62/89/36 50/62/24
f 40/97/44 38/105/52 56/106/53 60/98/45
f 60/98/45 56/106/53 55/81/28 59/87/34
f 34/100/47 32/107/54 52/108/55 58/101/48
f 58/101/48 52/108/55 51/86/23 57/85/32
f 38/105/52 36/99/46 53/102/49 56/106/53
f 56/106/53 53/102/49 54/82/29 55/81/28
f 32/109/54 30/103/50 49/104/51 52/110/55
f 52/110/55 49/104/51 50/62/24 51/61/23
f 29/60/22 30/59/22 32/111/27 31/112/27
