# Blender v2.79 (sub 0) OBJ File: ''
# www.blender.org
mtllib Crystal.mtl
o Cube
v 0.000000 -3.030553 -0.000000
v -0.000000 3.030553 0.000000
v 1.000000 0.000000 -1.000000
v 1.000000 0.000000 1.000000
v -1.000000 0.000000 1.000000
v -1.000000 0.000000 -1.000000
vt 0.499900 0.499900
vt 0.250000 0.250000
vt 0.499900 0.000100
vt 0.000100 0.000100
vt 0.000100 0.499900
vt 0.499900 0.999900
vt 0.250000 0.750000
vt 0.499900 0.500100
vt 0.000100 0.500100
vt 0.000100 0.999900
vn 0.9496 0.3134 0.0000
vn -0.0000 0.3134 0.9496
vn -0.9496 0.3134 -0.0000
vn 0.0000 -0.3134 -0.9496
vn 0.0000 0.3134 -0.9496
vn -0.9496 -0.3134 -0.0000
vn -0.0000 -0.3134 0.9496
vn 0.9496 -0.3134 0.0000
usemtl Material
s off
f 3/1/1 2/2/1 4/3/1
f 4/3/2 2/2/2 5/4/2
f 5/4/3 2/2/3 6/5/3
f 3/6/4 1/7/4 6/8/4
f 2/2/5 3/1/5 6/5/5
f 1/7/6 5/9/6 6/8/6
f 1/7/7 4/10/7 5/9/7
f 1/7/8 3/6/8 4/10/8
